<svg width="800" height="800" viewBox="0 0 800 800" fill="none" xmlns="http://www.w3.org/2000/svg">
<path fill-rule="evenodd" clip-rule="evenodd" d="M179.274 66.6641C179.681 66.6641 180.088 66.6641 180.497 66.6641H254.054C267.242 66.6634 279.109 66.6628 288.978 67.4821C299.55 68.3601 310.776 70.3481 321.745 76.0464C336.964 83.9528 349.374 96.3628 357.281 111.583C362.981 122.552 364.967 133.778 365.847 144.35C366.664 154.219 366.664 166.086 366.664 179.273V320.721C366.664 333.911 366.664 345.777 365.847 355.644C364.967 366.217 362.981 377.444 357.281 388.411C349.374 403.631 336.964 416.041 321.745 423.947C310.776 429.647 299.55 431.634 288.978 432.514C279.11 433.331 267.242 433.331 254.055 433.331H179.273C166.086 433.331 154.219 433.331 144.35 432.514C133.779 431.634 122.552 429.647 111.583 423.947C96.3628 416.041 83.9528 403.631 76.0464 388.411C70.3481 377.444 68.3601 366.217 67.4821 355.644C66.6628 345.777 66.6634 333.907 66.6641 320.721V180.497C66.6641 180.088 66.6641 179.681 66.6641 179.274C66.6634 166.086 66.6628 154.219 67.4821 144.35C68.3601 133.778 70.3481 122.552 76.0464 111.583C83.9528 96.3628 96.3628 83.9528 111.583 76.0464C122.552 70.3481 133.778 68.3601 144.35 67.4821C154.219 66.6628 166.086 66.6634 179.274 66.6641ZM142.581 135.096C142.406 135.16 142.315 135.207 142.315 135.207C139.27 136.788 136.788 139.27 135.207 142.315C135.207 142.315 135.16 142.406 135.096 142.581C135.03 142.764 134.92 143.101 134.788 143.651C134.511 144.806 134.182 146.712 133.92 149.868C133.358 156.641 133.331 165.701 133.331 180.497V319.497C133.331 334.294 133.358 343.354 133.92 350.127C134.182 353.284 134.511 355.187 134.788 356.344C134.92 356.894 135.03 357.231 135.096 357.414C135.16 357.587 135.207 357.681 135.207 357.681C136.788 360.724 139.27 363.207 142.315 364.787C142.315 364.787 142.406 364.834 142.581 364.897C142.764 364.964 143.101 365.074 143.651 365.207C144.806 365.484 146.712 365.814 149.868 366.074C156.641 366.637 165.701 366.664 180.497 366.664H252.831C267.628 366.664 276.687 366.637 283.461 366.074C286.616 365.814 288.522 365.484 289.677 365.207C290.227 365.074 290.564 364.964 290.747 364.897C290.922 364.834 291.014 364.787 291.014 364.787C294.058 363.207 296.54 360.724 298.121 357.681C298.121 357.681 298.168 357.587 298.232 357.414C298.298 357.231 298.409 356.894 298.54 356.344C298.817 355.187 299.146 353.284 299.408 350.127C299.971 343.354 299.997 334.294 299.997 319.497V180.497C299.997 165.701 299.971 156.641 299.408 149.868C299.146 146.712 298.817 144.806 298.54 143.651C298.409 143.101 298.298 142.764 298.232 142.581C298.168 142.406 298.121 142.315 298.121 142.315C296.54 139.27 294.058 136.788 291.014 135.207C291.014 135.207 290.922 135.16 290.747 135.096C290.564 135.03 290.227 134.92 289.677 134.788C288.522 134.511 286.616 134.182 283.461 133.92C276.687 133.358 267.628 133.331 252.831 133.331H180.497C165.701 133.331 156.641 133.358 149.868 133.92C146.712 134.182 144.806 134.511 143.651 134.788C143.101 134.92 142.764 135.03 142.581 135.096ZM545.941 66.6641H620.721C633.907 66.6634 645.777 66.6628 655.644 67.4821C666.217 68.3601 677.444 70.3481 688.411 76.0464C703.631 83.9528 716.041 96.3628 723.947 111.583C729.647 122.552 731.634 133.778 732.514 144.35C733.331 154.219 733.331 166.086 733.331 179.275V187.387C733.331 200.575 733.331 212.443 732.514 222.311C731.634 232.883 729.647 244.109 723.947 255.079C716.041 270.299 703.631 282.709 688.411 290.615C677.444 296.313 666.217 298.301 655.644 299.179C645.777 299.999 633.907 299.998 620.721 299.997H545.941C532.754 299.998 520.884 299.999 511.017 299.179C500.444 298.301 489.217 296.313 478.251 290.615C463.031 282.709 450.621 270.299 442.714 255.079C437.014 244.109 435.027 232.883 434.147 222.311C433.331 212.443 433.331 200.576 433.331 187.388V179.273C433.331 166.086 433.331 154.219 434.147 144.35C435.027 133.779 437.014 122.552 442.714 111.583C450.621 96.3628 463.031 83.9528 478.251 76.0464C489.217 70.3481 500.444 68.3601 511.017 67.4821C520.884 66.6628 532.754 66.6634 545.941 66.6641ZM509.247 135.096C509.074 135.16 508.981 135.207 508.981 135.207C505.937 136.788 503.454 139.27 501.874 142.315C501.874 142.315 501.827 142.406 501.764 142.581C501.697 142.764 501.587 143.101 501.454 143.651C501.177 144.806 500.847 146.712 500.587 149.868C500.024 156.641 499.997 165.701 499.997 180.497V186.164C499.997 200.961 500.024 210.02 500.587 216.794C500.847 219.949 501.177 221.855 501.454 223.011C501.587 223.56 501.697 223.898 501.764 224.08C501.827 224.256 501.874 224.347 501.874 224.347C503.454 227.391 505.937 229.873 508.981 231.454C508.981 231.454 509.074 231.501 509.247 231.565C509.431 231.632 509.767 231.742 510.317 231.874C511.474 232.15 513.381 232.479 516.534 232.741C523.307 233.304 532.367 233.331 547.164 233.331H619.497C634.294 233.331 643.354 233.304 650.127 232.741C653.284 232.479 655.187 232.15 656.344 231.874C656.894 231.742 657.231 231.632 657.414 231.565C657.587 231.501 657.681 231.454 657.681 231.454C660.724 229.873 663.207 227.391 664.787 224.347C664.787 224.347 664.834 224.256 664.897 224.08C664.964 223.898 665.074 223.56 665.207 223.011C665.484 221.855 665.814 219.949 666.074 216.794C666.637 210.02 666.664 200.961 666.664 186.164V180.497C666.664 165.701 666.637 156.641 666.074 149.868C665.814 146.712 665.484 144.806 665.207 143.651C665.074 143.101 664.964 142.764 664.897 142.581C664.834 142.406 664.787 142.315 664.787 142.315C663.207 139.27 660.724 136.788 657.681 135.207C657.681 135.207 657.587 135.16 657.414 135.096C657.231 135.03 656.894 134.92 656.344 134.788C655.187 134.511 653.284 134.182 650.127 133.92C643.354 133.358 634.294 133.331 619.497 133.331H547.164C532.367 133.331 523.307 133.358 516.534 133.92C513.381 134.182 511.474 134.511 510.317 134.788C509.767 134.92 509.431 135.03 509.247 135.096ZM545.941 366.664H620.721C633.907 366.664 645.777 366.664 655.644 367.481C666.217 368.361 677.444 370.347 688.411 376.047C703.631 383.954 716.041 396.364 723.947 411.584C729.647 422.551 731.634 433.777 732.514 444.351C733.331 454.217 733.331 466.087 733.331 479.274V620.721C733.331 633.907 733.331 645.777 732.514 655.644C731.634 666.217 729.647 677.444 723.947 688.411C716.041 703.631 703.631 716.041 688.411 723.947C677.444 729.647 666.217 731.634 655.644 732.514C645.777 733.331 633.907 733.331 620.721 733.331H545.941C532.754 733.331 520.884 733.331 511.017 732.514C500.444 731.634 489.217 729.647 478.251 723.947C463.031 716.041 450.621 703.631 442.714 688.411C437.014 677.444 435.027 666.217 434.147 655.644C433.331 645.777 433.331 633.911 433.331 620.721V479.274C433.331 466.087 433.331 454.217 434.147 444.351C435.027 433.777 437.014 422.551 442.714 411.584C450.621 396.364 463.031 383.954 478.251 376.047C489.217 370.347 500.444 368.361 511.017 367.481C520.884 366.664 532.754 366.664 545.941 366.664ZM509.247 435.097C509.074 435.161 508.981 435.207 508.981 435.207C505.937 436.787 503.454 439.271 501.874 442.314C501.874 442.314 501.827 442.407 501.764 442.581C501.697 442.764 501.587 443.101 501.454 443.651C501.177 444.807 500.847 446.714 500.587 449.867C500.024 456.641 499.997 465.701 499.997 480.497V619.497C499.997 634.294 500.024 643.354 500.587 650.127C500.847 653.284 501.177 655.187 501.454 656.344C501.587 656.894 501.697 657.231 501.764 657.414C501.827 657.587 501.874 657.681 501.874 657.681C503.454 660.724 505.937 663.207 508.981 664.787C508.981 664.787 509.074 664.834 509.247 664.897C509.431 664.964 509.767 665.074 510.317 665.207C511.474 665.484 513.381 665.814 516.534 666.074C523.307 666.637 532.367 666.664 547.164 666.664H619.497C634.294 666.664 643.354 666.637 650.127 666.074C653.284 665.814 655.187 665.484 656.344 665.207C656.894 665.074 657.231 664.964 657.414 664.897C657.587 664.834 657.681 664.787 657.681 664.787C660.724 663.207 663.207 660.724 664.787 657.681C664.787 657.681 664.834 657.587 664.897 657.414C664.964 657.231 665.074 656.894 665.207 656.344C665.484 655.187 665.814 653.284 666.074 650.127C666.637 643.354 666.664 634.294 666.664 619.497V480.497C666.664 465.701 666.637 456.641 666.074 449.867C665.814 446.714 665.484 444.807 665.207 443.651C665.074 443.101 664.964 442.764 664.897 442.581C664.834 442.407 664.787 442.314 664.787 442.314C663.207 439.271 660.724 436.787 657.681 435.207C657.681 435.207 657.587 435.161 657.414 435.097C657.231 435.031 656.894 434.921 656.344 434.787C655.187 434.511 653.284 434.181 650.127 433.921C643.354 433.357 634.294 433.331 619.497 433.331H547.164C532.367 433.331 523.307 433.357 516.534 433.921C513.381 434.181 511.474 434.511 510.317 434.787C509.767 434.921 509.431 435.031 509.247 435.097ZM179.273 499.997H254.055C267.242 499.997 279.11 499.997 288.978 500.814C299.55 501.694 310.776 503.681 321.745 509.381C336.964 517.287 349.374 529.697 357.281 544.917C362.981 555.884 364.967 567.111 365.847 577.684C366.664 587.551 366.664 599.421 366.664 612.607V620.721C366.664 633.911 366.664 645.777 365.847 655.644C364.967 666.217 362.981 677.444 357.281 688.411C349.374 703.631 336.964 716.041 321.745 723.947C310.776 729.647 299.55 731.634 288.978 732.514C279.109 733.331 267.242 733.331 254.053 733.331H179.275C166.086 733.331 154.219 733.331 144.35 732.514C133.778 731.634 122.552 729.647 111.583 723.947C96.3628 716.041 83.9528 703.631 76.0464 688.411C70.3481 677.444 68.3601 666.217 67.4821 655.644C66.6628 645.777 66.6634 633.907 66.6641 620.721V612.607C66.6634 599.421 66.6628 587.551 67.4821 577.684C68.3601 567.111 70.3481 555.884 76.0464 544.917C83.9528 529.697 96.3628 517.287 111.583 509.381C122.552 503.681 133.779 501.694 144.35 500.814C154.219 499.997 166.086 499.997 179.273 499.997ZM142.581 568.431C142.406 568.494 142.315 568.541 142.315 568.541C139.27 570.121 136.788 572.604 135.207 575.647C135.207 575.647 135.16 575.741 135.096 575.914C135.03 576.097 134.92 576.434 134.788 576.984C134.511 578.141 134.182 580.047 133.92 583.201C133.358 589.974 133.331 599.034 133.331 613.831V619.497C133.331 634.294 133.358 643.354 133.92 650.127C134.182 653.284 134.511 655.187 134.788 656.344C134.92 656.894 135.03 657.231 135.096 657.414C135.16 657.587 135.207 657.681 135.207 657.681C136.788 660.724 139.27 663.207 142.315 664.787C142.315 664.787 142.406 664.834 142.581 664.897C142.764 664.964 143.101 665.074 143.651 665.207C144.806 665.484 146.712 665.814 149.868 666.074C156.641 666.637 165.701 666.664 180.497 666.664H252.831C267.628 666.664 276.687 666.637 283.461 666.074C286.616 665.814 288.522 665.484 289.677 665.207C290.227 665.074 290.564 664.964 290.747 664.897C290.922 664.834 291.014 664.787 291.014 664.787C294.058 663.207 296.54 660.724 298.121 657.681C298.121 657.681 298.168 657.587 298.232 657.414C298.298 657.231 298.409 656.894 298.54 656.344C298.817 655.187 299.146 653.284 299.408 650.127C299.971 643.354 299.997 634.294 299.997 619.497V613.831C299.997 599.034 299.971 589.974 299.408 583.201C299.146 580.047 298.817 578.141 298.54 576.984C298.409 576.434 298.298 576.097 298.232 575.914C298.168 575.741 298.121 575.647 298.121 575.647C296.54 572.604 294.058 570.121 291.014 568.541C291.014 568.541 290.922 568.494 290.747 568.431C290.564 568.364 290.227 568.254 289.677 568.121C288.522 567.844 286.616 567.514 283.461 567.254C276.687 566.691 267.628 566.664 252.831 566.664H180.497C165.701 566.664 156.641 566.691 149.868 567.254C146.712 567.514 144.806 567.844 143.651 568.121C143.101 568.254 142.764 568.364 142.581 568.431Z" fill="#171717"/>
</svg>
